<svg width="48" height="48" viewBox="0 0 48 48" fill="none" xmlns="http://www.w3.org/2000/svg">
  <!-- Sfondo blu del logo -->
  <rect width="48" height="48" rx="8" fill="#1e40af"/>
  
  <!-- Edificio sinistro - più basso con finestre -->
  <g transform="translate(8, 16)">
    <!-- Contorno edificio -->
    <rect x="0" y="0" width="6" height="20" rx="1" stroke="white" stroke-width="1.5" fill="none"/>
    <!-- Finestre orizzontali -->
    <line x1="1" y1="4" x2="5" y2="4" stroke="white" stroke-width="1" stroke-linecap="round"/>
    <line x1="1" y1="8" x2="5" y2="8" stroke="white" stroke-width="1" stroke-linecap="round"/>
    <line x1="1" y1="12" x2="5" y2="12" stroke="white" stroke-width="1" stroke-linecap="round"/>
    <line x1="1" y1="16" x2="5" y2="16" stroke="white" stroke-width="1" stroke-linecap="round"/>
  </g>
  
  <!-- Edificio centrale - più alto e prominente -->
  <g transform="translate(18, 8)">
    <!-- Contorno edificio -->
    <rect x="0" y="0" width="8" height="28" rx="1" stroke="white" stroke-width="1.5" fill="none"/>
    <!-- Finestre verticali -->
    <line x1="2" y1="4" x2="6" y2="4" stroke="white" stroke-width="1" stroke-linecap="round"/>
    <line x1="2" y1="8" x2="6" y2="8" stroke="white" stroke-width="1" stroke-linecap="round"/>
    <line x1="2" y1="12" x2="6" y2="12" stroke="white" stroke-width="1" stroke-linecap="round"/>
    <line x1="2" y1="16" x2="6" y2="16" stroke="white" stroke-width="1" stroke-linecap="round"/>
    <line x1="2" y1="20" x2="6" y2="20" stroke="white" stroke-width="1" stroke-linecap="round"/>
    <line x1="2" y1="24" x2="6" y2="24" stroke="white" stroke-width="1" stroke-linecap="round"/>
  </g>
  
  <!-- Edificio destro - moderno con forme offset -->
  <g transform="translate(32, 12)">
    <!-- Primo blocco -->
    <rect x="0" y="0" width="6" height="16" rx="1" stroke="white" stroke-width="1.5" fill="none"/>
    <!-- Secondo blocco offset -->
    <rect x="2" y="4" width="6" height="16" rx="1" stroke="white" stroke-width="1.5" fill="none"/>
    <!-- Finestre -->
    <line x1="1" y1="6" x2="5" y2="6" stroke="white" stroke-width="1" stroke-linecap="round"/>
    <line x1="1" y1="10" x2="5" y2="10" stroke="white" stroke-width="1" stroke-linecap="round"/>
    <line x1="3" y1="8" x2="7" y2="8" stroke="white" stroke-width="1" stroke-linecap="round"/>
    <line x1="3" y1="12" x2="7" y2="12" stroke="white" stroke-width="1" stroke-linecap="round"/>
  </g>
  
  <!-- Linee di base sotto gli edifici -->
  <g transform="translate(8, 36)">
    <line x1="0" y1="0" x2="6" y2="0" stroke="white" stroke-width="1.5" stroke-linecap="round"/>
  </g>
  <g transform="translate(18, 36)">
    <line x1="0" y1="0" x2="8" y2="0" stroke="white" stroke-width="1.5" stroke-linecap="round"/>
  </g>
  <g transform="translate(32, 36)">
    <line x1="0" y1="0" x2="8" y2="0" stroke="white" stroke-width="1.5" stroke-linecap="round"/>
  </g>
  
  <!-- Elementi decorativi aggiuntivi per modernità -->
  <!-- Punti luminosi sugli edifici -->
  <circle cx="11" cy="22" r="0.5" fill="white" opacity="0.8"/>
  <circle cx="22" cy="26" r="0.5" fill="white" opacity="0.8"/>
  <circle cx="35" cy="18" r="0.5" fill="white" opacity="0.8"/>
  <circle cx="37" cy="22" r="0.5" fill="white" opacity="0.8"/>
</svg>
